<svg width="52" height="52" viewBox="0 0 52 52" fill="none" xmlns="http://www.w3.org/2000/svg">
<rect width="52" height="52" rx="16" fill="#4177DC"/>
<path d="M16.544 31L20.576 19.224H22.208L26.24 31H24.928L23.744 27.64H19.008L17.856 31H16.544ZM19.328 26.488H23.424L21.392 20.344L19.328 26.488ZM30.081 31.016C29.5903 31.016 29.1797 30.9307 28.849 30.76C28.5183 30.5787 28.2677 30.2907 28.097 29.896C27.9263 29.4907 27.841 28.9467 27.841 28.264V18.792H29.105V28.104C29.105 28.616 29.153 29.0053 29.249 29.272C29.345 29.528 29.4837 29.7093 29.665 29.816C29.8463 29.912 30.0597 29.976 30.305 30.008L31.169 30.104V31.016H30.081ZM34.7841 31.016C34.2935 31.016 33.8828 30.9307 33.5521 30.76C33.2215 30.5787 32.9708 30.2907 32.8001 29.896C32.6295 29.4907 32.5441 28.9467 32.5441 28.264V18.792H33.8081V28.104C33.8081 28.616 33.8561 29.0053 33.9521 29.272C34.0481 29.528 34.1868 29.7093 34.3681 29.816C34.5495 29.912 34.7628 29.976 35.0081 30.008L35.8721 30.104V31.016H34.7841Z" fill="#F1F2F3"/>
</svg>
