<svg width="32" height="32" viewBox="0 0 32 32" fill="none" xmlns="http://www.w3.org/2000/svg">
<path d="M29.0667 18.6681C28.5144 21.365 27.1417 23.8251 25.1366 25.7113C23.1316 27.5975 20.5922 28.8175 17.8667 29.2041V26.5041C19.8797 26.1451 21.7474 25.2157 23.2478 23.8264C24.7482 22.4371 25.8182 20.6463 26.3307 18.6667L29.0667 18.6681ZM5.66933 18.6681C6.17628 20.6248 7.22809 22.3974 8.70252 23.78C10.177 25.1626 12.0135 26.0985 13.9987 26.4787V29.1854C11.2999 28.7742 8.7921 27.5453 6.81349 25.6645C4.83488 23.7836 3.48062 21.3413 2.93333 18.6667H5.66933V18.6681ZM24 14.6667V17.3334H22.6667C21.2983 17.3334 19.9824 17.8593 18.9909 18.8024C17.9995 19.7454 17.4084 21.0335 17.34 22.4001L17.3333 22.6667V24.0001H14.6667V22.6667C14.6667 21.2984 14.1407 19.9824 13.1977 18.991C12.2546 17.9996 10.9666 17.4085 9.59999 17.3401L9.33333 17.3334H7.99999V14.6667H24ZM16 2.66675C22.9133 2.66675 28.5987 7.92941 29.2667 14.6667H26.584C26.2586 12.0893 25.0039 9.71911 23.0552 8.00098C21.1066 6.28285 18.5979 5.33485 16 5.33485C13.4021 5.33485 10.8934 6.28285 8.94476 8.00098C6.9961 9.71911 5.74137 12.0893 5.41599 14.6667H2.73199C3.40133 7.92941 9.08666 2.66675 16 2.66675Z" fill="white"/>
</svg>
